
        <svg xmlns="http://www.w3.org/2000/svg" xmlns:xlink="http://www.w3.org/1999/xlink" version="1.1" width="3300" 
        height="1979.6358846070439" viewBox="0 0 3300 1979.6358846070439">
			
			<g transform="scale(15) translate(10, 10)">
				<defs id="SvgjsDefs1250"></defs><g id="SvgjsG1251" featureKey="symbolFeature-0" transform="matrix(0.8987830237035234,0,0,0.8987830237035234,55.553428499428286,-8.939152042322455)" fill="#111111"><g xmlns="http://www.w3.org/2000/svg"><path d="M80.1723633,70.127182c-1.3388062,3.0643311-3.208252,5.4432373-5.43927,7.2965088   c5.0343018-5.5845947,7.5196533-11.9493408,7.8225098-15.7111855c0.1164551-1.4465942-0.5109863-2.3925781-1.0633545-2.9343262   c-0.2764282-0.2711792-0.7304688-0.0775146-0.7556152,0.3088989c-0.1606445,2.4668579-1.8137817,6.1522865-3.3522339,9.104557   c2.4154053-5.5764198,3.0184937-11.5123329,3.0184937-11.5123329c0.463501-2.8766479,1.265564-6.836792,1.6651611-8.7669067   c0.131958-0.637207-0.2774048-1.2594604-0.9164429-1.3820801c-2.0421143-0.3919067-5.385498-0.2796021-6.2125244,10.1592407   C73.9215088,69.5325775,60.265564,75.4981537,60.265564,75.4981537c4.1103516-2.0549316,6.1653442-13.505558,6.1653442-13.505558   c-0.4025879-5.3643188-8.6662598-10.9611206-12.2765503-13.1606445c-0.7133789-0.4345703-1.6206665,0.1606445-1.5050659,0.9879761   c1.0255127,7.3371582,6.4302368,6.1994019,7.7880249,11.6311646c1.4683228,5.8713417-13.2311401,15.7706947-17.0476074,12.8346596   c-3.8168945-2.9360352,1.0311279-11.7073402,1.0311279-11.7073402c3.7709351-5.5510254,3.3806763-9.177002,2.6073608-11.0716553   c-0.2512817-0.6156616-1.130249-0.6358643-1.406189-0.0308838c-1.8203125,3.9912109-8.9845581,12.2404785-8.9845581,12.2404785   c-2.7802124,2.6553383-5.0475464,5.2492104-6.9074097,7.7205238l0.0031738-0.0075684   c0,0-12.1951904,3.772583-12.3444824,11.6865234c-0.0952759,5.0483398,0.7280273,4.4350586,1.887085,5.9736328   c0.8425903,1.1184082,2.4401855,1.2840576,3.5210571,0.3936768c4.8178101-3.9691162,17.677002-2.6668701,17.677002-2.6668701   c5.3342285,0.7407227,12.8692627,0.8300781,19.9910278-1.0820313c9.2781982-1.3068848,17.9484863-4.9121094,22.0283203-14.2504883   C83.1789551,69.9141693,80.8639526,68.5442963,80.1723633,70.127182z"></path><path d="M21.6724243,32.8298149c7.4382324,5.8839722,16.6843262,6.7509155,21.2506104,2.1955566   c8.9920654,10.7014771,5.6300659,20.8416138,5.5936279,20.9464111l0.0015259,0.0004883   c-0.0219116,0.0880737-0.0344849,0.1790161-0.0344849,0.272644c0,0.718811,0.678833,1.3015137,1.5162964,1.3015137   s1.5162964-0.5827026,1.5162964-1.3015137c0-0.0936279-0.0125732-0.1845703-0.0344849-0.272644l0.0015259-0.0004883   c-0.036438-0.1047974-3.3984375-10.2449341,5.5936279-20.9464111c4.5662842,4.5553589,13.8123779,3.6884155,21.2506104-2.1955566   c7.7414551-6.1240215,6.6860962-19.9716167,6.6375122-20.5577984l-0.0471802-0.5670166l-0.5408936-0.1764526   c-0.5593262-0.1821899-13.7921753-4.3968511-21.5336304,1.7271729c-7.6079102,6.0182495-10.5369873,15.0817261-6.779541,20.5413189   C52.6802979,37.7468681,50.8886108,41.611187,50,45.000042c-0.8886108-3.388855-2.6802979-7.2531738-6.0638428-11.2030029   c3.7574463-5.4595928,0.8283691-14.5230694-6.779541-20.5413189c-7.7414551-6.1240239-20.9743042-1.9093628-21.5336304-1.7271729   l-0.5408936,0.1764526l-0.0471802,0.5670166C14.9863281,12.8581982,13.9309692,26.7057934,21.6724243,32.8298149z    M77.2653809,31.4871044c-6.7435303,5.3344707-14.993103,6.2833233-18.9523926,2.3552837l6.104126-4.8286724l10.8370972,1.2642212   l0.1983643-1.7002563l-9.1368408-1.065918l5.2418823-4.1466064l6.3116455,0.6190186l0.1672363-1.7033691l-4.5446777-0.4456787   l9.8234253-7.770874C83.3442383,17.8342724,82.8161621,27.0961132,77.2653809,31.4871044z M63.9055176,14.5983715   c5.5426025-4.3844604,14.6825562-2.7697144,18.3466797-1.8761597l-12.1312866,9.5964966l0.690979-5.9228516l-1.7003174-0.1983643   l-0.8893433,7.62323l-5.234436,4.140686l1.0635376-9.1168213l-1.7002563-0.1983032l-1.2619629,10.8171387l-3.8383179,3.036253   C54.3396606,27.7425365,57.1619263,19.9329662,63.9055176,14.5983715z M36.0944824,14.5983715   c6.7435913,5.3345947,9.5658569,13.144165,6.6547241,17.9013042l-3.8383179-3.036253l-1.2619629-10.8171387l-1.7002563,0.1983032   l1.0635376,9.1168213l-5.234436-4.140686l-0.8893433-7.62323l-1.7003174,0.1983643l0.690979,5.9228516l-12.1312866-9.5964966   C21.4119263,11.8286572,30.5518799,10.2139111,36.0944824,14.5983715z M26.5081787,21.8351269l-4.5446777,0.4456787   l0.1672363,1.7033691l6.3116455-0.6190186l5.2418823,4.1466064l-9.1368408,1.065918l0.1983643,1.7002563l10.8370972-1.2642212   l6.104126,4.8286724c-3.9592896,3.9280396-12.2088623,2.979187-18.9523926-2.3552837   c-5.5507813-4.3909912-6.0788574-13.652832-6.0498657-17.4228516L26.5081787,21.8351269z"></path></g></g><g id="SvgjsG1252" featureKey="nameFeature-0" transform="matrix(0.693601511241867,0,0,0.693601511241867,-1.9420843637712168,83.95422418941621)" fill="#111111"><path d="M23.4 23.4 c0 5 -4.6 5.8 -4.6 5.8 l5.4 8.6 l0 2.2 l-5.2 0 l-5.4 -10.4 l-5.6 0 l0 10.4 l-5.2 0 l0 -28 l14 0 c4 0 6.6 2.6 6.6 6.2 l0 5.2 z M8 16.4 l0 8.8 l7.4 0 c1.6 0 2.8 -1.2 2.8 -2.6 l0 -3.6 c0 -1.4 -1.2 -2.6 -2.8 -2.6 l-7.4 0 z M29.075000000000003 40 l0 -28 l19.2 0 l0 3 l-1.4 1.4 l-12.6 0 l0 7.2 l10.2 0 l0 4.4 l-10.2 0 l0 7.6 l14 0 l0 4.4 l-19.2 0 z M61.95 34.4 l0.4 0 l6.2 -22.4 l5.2 0 l0 2.2 l-8 25.8 l-7.2 0 l-8 -25.8 l0 -2.2 l5.2 0 z M92.42500000000001 11.600000000000001 c4 0 6.6 2.6 6.6 6.2 l0 16.4 c0 3.6 -2.6 6.2 -6.6 6.2 l-8.8 0 c-4 0 -6.6 -2.6 -6.6 -6.2 l0 -16.4 c0 -3.6 2.6 -6.2 6.6 -6.2 l8.8 0 z M85.025 16 c-1.6 0 -2.8 1.2 -2.8 2.6 l0 14.8 c0 1.4 1.2 2.6 2.8 2.6 l6 0 c1.6 0 2.8 -1.2 2.8 -2.6 l0 -14.8 c0 -1.4 -1.2 -2.6 -2.8 -2.6 l-6 0 z M109.10000000000001 19 l0 14 c0 1.4 1.2 2.6 2.8 2.6 l7.4 0 l0 -11 l5.2 0 l0 15.4 l-14 0 c-4 0 -6.6 -2.6 -6.6 -6.2 l0 -15.6 c0 -3.6 2.6 -6.2 6.6 -6.2 l13 0 l0 3 l-1.4 1.4 l-10.2 0 c-1.6 0 -2.8 1.2 -2.8 2.6 z M146.57500000000002 12 l5.2 0 l0 22.2 c0 3.6 -2.6 6.2 -6.6 6.2 l-8 0 c-4 0 -6.6 -2.6 -6.6 -6.2 l0 -22.2 l5.2 0 l0 21.4 c0 1.4 1.2 2.6 2.8 2.6 l5.2 0 c1.6 0 2.8 -1.2 2.8 -2.6 l0 -21.4 z M158.25000000000003 40 l0 -28 l19.2 0 l0 3 l-1.4 1.4 l-12.6 0 l0 7.2 l10.2 0 l0 4.4 l-10.2 0 l0 7.6 l14 0 l0 4.4 l-19.2 0 z M200.72500000000002 16.4 l4.8 16.6 l0.4 0 l3.8 -21 l5.8 0 l0 2.2 l-6.2 25.8 l-6.4 0 l-5 -17 l-0.4 0 l-5 17 l-6.4 0 l-6.2 -25.8 l0 -2.2 l5.8 0 l3.8 21 l0.4 0 l4.8 -16.6 l6 0 z M220.00000000000006 40 l0 -28 l19.2 0 l0 3 l-1.4 1.4 l-12.6 0 l0 7.2 l10.2 0 l0 4.4 l-10.2 0 l0 7.6 l14 0 l0 4.4 l-19.2 0 z M256.87500000000006 12 l8.6 25.8 l0 2.2 l-5.2 0 l-1.8 -6 l-10 0 l-1.8 6 l-5.2 0 l0 -2.2 l8.6 -25.8 l6.8 0 z M253.27500000000006 17.6 l-3.6 12 l7.6 0 l-3.6 -12 l-0.4 0 z M290.35 23.4 c0 5 -4.6 5.8 -4.6 5.8 l5.4 8.6 l0 2.2 l-5.2 0 l-5.4 -10.4 l-5.6 0 l0 10.4 l-5.2 0 l0 -28 l14 0 c4 0 6.6 2.6 6.6 6.2 l0 5.2 z M274.95000000000005 16.4 l0 8.8 l7.4 0 c1.6 0 2.8 -1.2 2.8 -2.6 l0 -3.6 c0 -1.4 -1.2 -2.6 -2.8 -2.6 l-7.4 0 z"></path></g>
			</g>
		</svg>
	